<?xml version="1.0" encoding="utf-8"?>
<!-- Generator: Adobe Illustrator 19.2.1, SVG Export Plug-In . SVG Version: 6.00 Build 0)  -->
<svg version="1.1" id="Ebene_1" xmlns="http://www.w3.org/2000/svg" xmlns:xlink="http://www.w3.org/1999/xlink" x="0px" y="0px"
	 viewBox="0 0 100 100" style="enable-background:new 0 0 100 100;" xml:space="preserve">
<style type="text/css">
	.st0{enable-background:new    ;}
</style>
<path d="M50,5c24.8,0,45,20.2,45,45S74.8,95,50,95S5,74.8,5,50S25.2,5,50,5 M50,0C22.4,0,0,22.4,0,50s22.4,50,50,50
	c27.6,0,50-22.4,50-50S77.6,0,50,0L50,0z"/>
<path d="M73.3,69.8L53.5,50l19.8-19.8c1-1,1-2.6,0-3.5c-1-1-2.6-1-3.5,0L50,46.5L30.2,26.7c-1-1-2.6-1-3.5,0s-1,2.6,0,3.5L46.5,50
	L26.7,69.8c-1,1-1,2.6,0,3.5c1,1,2.6,1,3.5,0L50,53.5l19.8,19.8c1,1,2.6,1,3.5,0C74.3,72.4,74.3,70.8,73.3,69.8z"/>
<text transform="matrix(1 0 0 1 0 115)" style="font-family:'HelveticaNeue-Bold'; font-size:5px;">Created by LAFS</text>
<text transform="matrix(1 0 0 1 0 120)" style="font-family:'HelveticaNeue-Bold'; font-size:5px;">from the Noun Project</text>
</svg>
