<?xml version="1.0" encoding="utf-8"?>
<!-- Generator: Adobe Illustrator 19.2.1, SVG Export Plug-In . SVG Version: 6.00 Build 0)  -->
<svg version="1.1" id="Ebene_1" xmlns="http://www.w3.org/2000/svg" xmlns:xlink="http://www.w3.org/1999/xlink" x="0px" y="0px"
	 viewBox="0 0 91.3 78.9" style="enable-background:new 0 0 91.3 78.9;" xml:space="preserve">
<style type="text/css">
	.st0{enable-background:new    ;}
</style>
<g>
	<path d="M45.7,78.9c-1.2,0-2.3-0.4-3.2-1.3L6.8,42c0,0-0.1-0.1-0.1-0.1c-9.4-10-8.9-25.8,1.1-35.1C12.5,2.4,18.5,0,24.8,0
		C31.7,0,38.3,2.9,43,7.8l2.7,2.9l2.7-2.9C53.1,2.9,59.7,0,66.5,0c6.3,0,12.4,2.4,17,6.7c10,9.4,10.5,25.2,1.1,35.1
		c0,0-0.1,0.1-0.1,0.1L48.8,77.6C48,78.4,46.8,78.9,45.7,78.9z M13.2,35.7L45.7,68l32.4-32.3c5.9-6.4,5.6-16.4-0.7-22.4
		C74.4,10.5,70.5,9,66.5,9c-4.4,0-8.5,1.8-11.6,5l-6,6.4c-0.8,0.9-2,1.4-3.3,1.4h0c-1.2,0-2.4-0.5-3.3-1.4l-6-6.4
		c-3-3.2-7.1-5-11.6-5c-4,0-7.9,1.5-10.9,4.3C7.6,19.3,7.3,29.3,13.2,35.7z"/>
</g>
<text transform="matrix(1 0 0 1 -4.4743 107.7654)" style="font-family:'HelveticaNeue-Bold'; font-size:5px;">Created by dilayorganci</text>
<text transform="matrix(1 0 0 1 -4.4743 112.7654)" style="font-family:'HelveticaNeue-Bold'; font-size:5px;">from the Noun Project</text>
</svg>
